<svg xmlns="http://www.w3.org/2000/svg"><style>:root svg:not(:target){display:none}</style><svg viewBox="0 0 128 24" fill="none" id="footer-logo"><path d="M1.62 21.96a9.43 9.43 0 0 1-1.6-5.72v-8.48a9.56 9.56 0 0 1 1.5-5.82c1.1-1.33 2.8-1.94 5.31-1.94 2.5 0 4.1.61 5.1 1.74a7.43 7.43 0 0 1 1.51 5v2.04h-4.9v-2.35a5.4 5.4 0 0 0-.3-2.04 1.42 1.42 0 0 0-1.4-.82c-.71 0-1.21.2-1.41.72a6.72 6.72 0 0 0-.3 2.25v10.92a4.3 4.3 0 0 0 .4 2.15c.2.5.7.71 1.4.71s1.1-.2 1.3-.71c.23-.7.33-1.42.3-2.15v-2.45h4.91v2.05a7.92 7.92 0 0 1-1.5 5.1c-1 1.23-2.7 1.84-5.1 1.84-2.41-.1-4.22-.71-5.22-2.04Zm17.73-21.66h5.7l4.21 23.3h-4.6l-.8-4.91h-3.31l-.8 4.9h-4.7l4.3-23.28Zm4.1 15.33-1.2-9.1-1.2 9.1h2.4Zm9.32-11.44h-3.4v-3.88h11.9v3.78h-3.4v19.5h-5.1v-19.4Zm26.43-3.89v2.46h-5.7v7.66h4.6v2.35h-4.6v8.57h5.7v2.35h-8.9v-23.38h8.9Zm2.6 0h2.21l6.51 15.43v-15.42h2.6v23.28h-2l-6.6-15.93v15.93h-2.71v-23.28Zm14.33 0h8.81v2.46h-5.7v7.66h4.6v2.35h-4.6v8.57h5.7v2.35h-8.81v-23.38Zm16.02 0a7.9 7.9 0 0 1 5.1 1.44c1.1.92 1.6 2.55 1.6 4.7 0 2.96-.9 4.8-2.8 5.4l3.21 11.65h-3.1l-3-10.93h-2.51v10.93h-3.2v-23.18h4.7Zm-.2 10.01c1.03.1 2.06-.2 2.9-.81.6-.51.9-1.53.9-3.07a6.72 6.72 0 0 0-.3-2.24 2.58 2.58 0 0 0-1.1-1.23 4.49 4.49 0 0 0-2.2-.4h-1.4v7.65h1.2v.1Zm10.91 11.55a10.49 10.49 0 0 1-1.4-5.93v-7.76a17 17 0 0 1 .5-4.4c.34-1.06 1-2 1.9-2.65 1.12-.67 2.41-1 3.71-.92 2.1 0 3.6.51 4.5 1.64a7.93 7.93 0 0 1 1.41 5.1v.82h-3v-.71c0-.86-.07-1.71-.2-2.56a2.05 2.05 0 0 0-.8-1.32 3.05 3.05 0 0 0-1.9-.51 2.96 2.96 0 0 0-2.01.6 2.3 2.3 0 0 0-.8 1.64c-.13.92-.2 1.84-.2 2.76v8.68a9.43 9.43 0 0 0 .6 3.88c.4.82 1.2 1.12 2.4 1.12a2.38 2.38 0 0 0 2.4-1.22c.53-1.3.77-2.69.7-4.09v-1.63h-2.9v-2.35h5.81v11.54h-2l-.3-2.65a4.17 4.17 0 0 1-1.56 2.2c-.74.53-1.64.8-2.55.76a4.92 4.92 0 0 1-4.3-2.04Zm17.13-6.44-4.9-15.01h3l3.5 11.23 3.4-11.23h3.01l-4.9 15.01v8.17h-3.01v-8.17h-.1Z" fill="#111"></path></svg><svg viewBox="0 0 202 59" fill="none" id="header-logo"><g clip-path="url(#header-logo_0)"><path d="M59.74 23.8a25.42 25.42 0 0 0-8.03-10.37 25.63 25.63 0 0 0-35.72 4.57 25.33 25.33 0 0 0 4.35 35.54 25.63 25.63 0 0 0 12.1 5.18c-.58-2.07-1.17-4.36-1.69-6.8 1.5.98 3.1 1.83 4.75 2.54 0 0 .12 2.14.28 4.53 1.78.03 3.56-.13 5.32-.47a2.1 2.1 0 0 1 0-.75c.29-1.85 1.08-5.2 1.24-7.35a15.1 15.1 0 0 0 2.9-3.68l-.06.44c-.55 4.22-1.7 8.74-2.4 9.98-.22.42-.5.8-.83 1.15a25.65 25.65 0 0 0 16.93-13.16 25.32 25.32 0 0 0 .86-21.34Zm-1.46 3.77c-.44.42-1.35.71-1.5-.58-.15-1.29-.19-2.2-.19-2.2s-1.93-3.4-2.64-3.43c-.72-.04-5.82 3.44-7.17 4.96-1.16 1.28-1.4 1.19-1.4 3.44 0 1.7.23 8.1.1 13l-8.13 2.15c-2.55.73-5.15 1.3-7.78 1.71l-1-5.78h-.14l-2.56-13.07s-3.8-1.42-5.2-1.81a3.77 3.77 0 0 0-3.99.62 5.03 5.03 0 0 0-1.72 3.82c.2.46.37.95.47 1.44.05.48-1.2.43-2 .43-.79 0-.9-1.43-.28-3.1a22.1 22.1 0 0 1 1.82-3.72 11.78 11.78 0 0 1 2.06-2.86s.14-.34 1.25-.24c1.1.1 7.26.42 7.26.42l.05-2.25c6.7-.92 13.44-1.36 20.2-1.33v1.82a22.58 22.58 0 0 1 8.12-1.98.91.91 0 0 1 .77.38c.33.43 2.4 2.98 2.64 3.34a27.6 27.6 0 0 1 1.82 2.98 6.17 6.17 0 0 1-.86 1.83Z" fill="#FDC305"></path><path d="m56.33 21.5 1 1.27a27.6 27.6 0 0 1 1.82 2.98 6.17 6.17 0 0 1-.85 1.77c-.44.42-1.35.71-1.5-.58-.15-1.29-.2-2.14-.2-2.14s-1.94-3.4-2.65-3.44c-.72-.04-5.82 3.44-7.17 4.96-1.16 1.28-1.4 1.19-1.4 3.44 0 1.49.18 6.6.14 11.14 1.8.2 4.46.7 5.25 1.86 0 0-.29-7.12 7.8-3.39 0 0 .28-9.71 11.43-7.22a43.58 43.58 0 0 0-13.67-10.65Zm-10.5-2.3c.04-5.5-.43-11-1.4-16.4 0 0-.15-1.3-.87-.24-.6 1.26-1 2.6-1.2 3.97a71.13 71.13 0 0 0-12.79.33c-.82-2.72-2.21-3.96-2.88-3.64-.67.33-.75 3.26-.75 3.26l-.33 14.04c6.7-.92 13.45-1.36 20.22-1.33Z" fill="#F06351"></path><path d="M45.25 46.74c.13-1.06.2-2.47.24-4.03l-8.14 2.16a64.15 64.15 0 0 1-7.78 1.75l1.11 4.96c0 .11 0 .22.07.33 1.5.97 3.1 1.82 4.75 2.53a42.36 42.36 0 0 0 6.86-4.1v.06a15.11 15.11 0 0 0 2.89-3.66Z" fill="#E55645"></path><path d="M31.93 16.09c-.05-.1 1 .67 1.4.91.41.24.61.42.61.59 0 .17-.26.33-.62.33s-.91-.11-1-.25c-.07-.14.6 0 .94 0h.3a8.04 8.04 0 0 1-1.63-1.58Zm7.48.11s-1 1.27-1.09 1.33c-.09.06-.17.33.2.29.4-.07.81-.16 1.2-.28.12-.06.08-.2-.11-.18-.19.02-.68.05-1 .1l.85-1.25s.03-.12-.05-.01Zm-3.13 6.06c.46-.2.84-.55 1.08-1 .28-.65 0-.9-.43-.99-.6-.1-1.23.02-1.75.34-.39.37-.34.73 0 1 .34.26.7.48 1.1.65Z" fill="#000"></path><path d="M35.92 23.5c-.12.23-.27.44-.46.6-.29.23-.63.36-1 .38-.55.05-1.1-.1-1.54-.44a2 2 0 0 1-.52-.44 1 1 0 0 0-.36-.25s.74 4.08 2.56 4.73c1.82.66 2.16-.75 2.2-1.13a5.56 5.56 0 0 0-.81-3.21c0-.3-.02-.1-.07-.23Z" fill="#F06351"></path><path d="M34.22 24.64a3.5 3.5 0 0 1-2.34-1.42.15.15 0 0 1 0-.2.14.14 0 0 1 .1-.04.14.14 0 0 1 .1.04 3.2 3.2 0 0 0 2.1 1.3 2.11 2.11 0 0 0 1.64-.99l.14-.19.1.22s.38.75 1 .8c.61.03 1.05-.42 1.62-1.29a.14.14 0 0 1 .24.16c-.66.97-1.3 1.44-1.89 1.4a1.55 1.55 0 0 1-1.11-.72 2.25 2.25 0 0 1-1.7.93Z" fill="#000"></path><path d="M36.18 38a3.73 3.73 0 0 0 3.74-3.73 3.73 3.73 0 0 0-3.74-3.72 3.73 3.73 0 0 0-3.74 3.72 3.73 3.73 0 0 0 3.74 3.72Z" fill="#FDC305"></path><path d="m41.14 31.25-3.13 1.3 1.15-5.59-7.48 9.68 3.12-1.3-1.15 5.6 7.49-9.7Zm-7.38 3.8 4.15-5.37-.8 3.97 1.99-.82-4.18 5.38.8-3.97-1.96.8Zm-1.39-1.46c.61 0 1.11-.5 1.11-1.11a1.11 1.11 0 1 0-2.23 0c0 .6.5 1.1 1.12 1.1Zm6.5 4.02c.44 0 .79-.35.79-.78a.79.79 0 0 0-.79-.78.79.79 0 0 0-.79.78c0 .43.36.78.8.78Zm.96-2.15a.35.35 0 1 0 0-.69c-.2 0-.35.15-.35.34 0 .2.16.35.35.35Z" fill="#111"></path><path d="M45.78 20.99a57.14 57.14 0 0 0-5.08 5.17 31.74 31.74 0 0 1-5.3 4.86c-.22-.53-1.63-1.51-1.63-1.51s-3.13-2.13-5.19-3.8a31.74 31.74 0 0 1-3.13-2.98l-2-.11a22.57 22.57 0 0 0 11.98 8.76c.86-.13 3.27-1.85 5.08-3.25a57.36 57.36 0 0 0 5.98-5.86c.5-.59.89-1.26 1.14-1.98-1.14.37-1.85.7-1.85.7Z" fill="#F06351"></path><path d="m65.07 3.47-8.44 9.37-1.22-1.98 8.13-10.86 1.53 3.47Zm-2.57 13.65 5.53-4.08-.77-3.7-5.4 4.77.65 3.01Zm-2.72 31.85 6.12 3.16 3-2.33-6.67-2.72-2.45 1.9Zm-57.83-43.05 3.06-3.33 9.27 8.93-1.22 2.26-11.11-7.86Zm5.41 10.23-4.69-3.1-2.4 3.83 5.15 2.38 1.94-3.11Zm6.52 35.98-4.54 3.32 2.8 3.55 4-3.99-2.26-2.88Z" fill="#FDC305"></path><path d="M25.87 27.77s-3.8-1.42-5.2-1.81a3.77 3.77 0 0 0-3.99.62 5.03 5.03 0 0 0-1.72 3.82c.2.46.37.95.47 1.44.05.48-1.2.43-2 .43-.79 0-.9-1.43-.28-3.1a22.1 22.1 0 0 1 1.82-3.72c-5.44 2.82-14.97 9.33-14.97 9.33a44.6 44.6 0 0 1 8.17.24c5.24.52 4.99 4.63 4.99 4.63 1.84-.5 3.72-.88 5.62-1.1 2.11-.14 2.26 2.1 2.26 2.1l.53 3.83c.8-.87 1.69-1.65 2.64-2.34a6.07 6.07 0 0 1 4.37-1.3l-2.7-13.07Z" fill="#F06351"></path><path d="M85.42 38.22a7.92 7.92 0 0 1-1.4-5.06v-7.32c-.13-1.8.36-3.6 1.38-5.1.93-1.17 2.52-1.75 4.76-1.74 2.25 0 3.77.52 4.56 1.53a6.43 6.43 0 0 1 1.33 4.38v1.71h-4.14v-1.86c0-.49-.05-.98-.13-1.46a1.62 1.62 0 0 0-.47-.93 1.58 1.58 0 0 0-1.16-.36c-.3-.04-.6 0-.87.14a1.4 1.4 0 0 0-.63.6 5.2 5.2 0 0 0-.34 2.14v9.28a4.5 4.5 0 0 0 .39 2.14 1.52 1.52 0 0 0 1.45.71 1.33 1.33 0 0 0 1.4-.72c.25-.68.35-1.4.32-2.13v-1.95h4.14v1.69a6.93 6.93 0 0 1-1.23 4.5c-.88 1.06-2.4 1.59-4.57 1.59-2.16 0-3.85-.59-4.79-1.78Zm16.28-18.94h4.76l4 20.48h-3.94l-.71-4.53h-3.33l-.8 4.5h-4.01l4.04-20.45Zm3.66 13.38-1.26-8.23-1.25 8.23h2.51Zm8.18-10.3h-3.25v-3.08h10.74v3.08h-3.2v17.37h-4.3l.01-17.37Z" fill="#111"></path><path d="M129.46 19.28h8.15v2.13h-5.21v6.75h4.23v2.02h-4.23v7.5h5.26v2.05h-8.2v-20.45Zm10.57 0h2l6.01 13.58v-13.58h2.45v20.48h-1.88l-6.01-13.96v13.93h-2.48l-.1-20.45Zm13.69 0h8.14v2.13h-5.21v6.75h4.27v2.02h-4.23v7.5h5.23v2.05h-8.2v-20.45Zm10.55 0h4.23a7.16 7.16 0 0 1 4.68 1.28c1 .85 1.5 2.23 1.5 4.15 0 2.6-.87 4.2-2.6 4.77l3 10.25h-2.84l-2.76-9.6h-2.27v9.6h-2.94v-20.45Zm4.01 8.78c.97.09 1.93-.18 2.7-.74a3.46 3.46 0 0 0 .83-2.65 5.55 5.55 0 0 0-.3-1.95 1.83 1.83 0 0 0-1-1.05 4.89 4.89 0 0 0-2.05-.34h-1.29v6.77l1.11-.04Zm10.34 10.16a8.82 8.82 0 0 1-1.27-5.22v-6.82c-.03-1.32.14-2.64.5-3.9.3-.96.9-1.79 1.75-2.35a6.05 6.05 0 0 1 3.36-.82 5.4 5.4 0 0 1 4.19 1.44 6.69 6.69 0 0 1 1.28 4.51v.76h-2.75v-.63c.02-.76-.05-1.51-.18-2.26-.1-.48-.37-.9-.76-1.2a3.07 3.07 0 0 0-1.73-.4c-.65-.05-1.3.14-1.81.55-.42.38-.69.89-.77 1.44-.13.8-.19 1.61-.17 2.43v7.6a7.15 7.15 0 0 0 .59 3.36 2.83 2.83 0 0 0 2.26 1.03 2.9 2.9 0 0 0 2.22-1.11c.48-1.13.69-2.35.6-3.56v-1.44h-2.66v-2.02h5.31v10.12h-1.81l-.3-2.35a3.6 3.6 0 0 1-1.4 1.93 3.7 3.7 0 0 1-2.33.67 4.79 4.79 0 0 1-4.12-1.76Zm16.06-5.71-4.54-13.23h2.72l3.22 9.87 3.16-9.87h2.76l-4.5 13.23v7.22h-2.81l-.01-7.22Z" fill="#444"></path></g><defs><clipPath id="header-logo_0"><path fill="#fff" d="M0 0h202v59h-202z"></path></clipPath></defs></svg><svg viewBox="0 0 168 37" fill="none" id="html-academy-logo"><path d="M15.75 13.04v11.46h-1.55v-5.22h-6.18v5.22h-1.56v-11.46h1.56v5.1h6.18v-5.1h1.55Zm10.68 1.3h-3.7v10.16h-1.55v-10.16h-3.72v-1.3h8.97v1.3Zm13.63-1.3v11.46h-1.36v-8.42a8.56 8.56 0 0 1 .04-.76l-3.93 7.17a.6.6 0 0 1-.56.36h-.23c-.25 0-.43-.12-.56-.36l-4.01-7.2a7 7 0 0 1 .05.79v8.42h-1.36v-11.46h1.14a1 1 0 0 1 .32.04c.07.02.15.1.22.22l3.96 7.06a6.96 6.96 0 0 1 .36.82 9.94 9.94 0 0 1 .36-.83l3.88-7.05c.07-.12.14-.2.21-.22.08-.03.2-.04.33-.04h1.14Zm9.44 10.16v1.3h-6.5v-11.46h1.54v10.16h4.96Zm10.88-2.96-1.8-4.66a9.57 9.57 0 0 1-.34-1.07c-.1.43-.22.79-.34 1.08l-1.8 4.65h4.28Zm3.23 4.26h-1.2a.52.52 0 0 1-.33-.1.64.64 0 0 1-.2-.27l-1.07-2.77h-5.14l-1.07 2.77c-.04.1-.1.18-.19.26a.52.52 0 0 1-.33.11h-1.2l4.58-11.46h1.57l4.58 11.46Zm6.6-6.66a.63.63 0 0 1-.13.13.29.29 0 0 1-.18.05.49.49 0 0 1-.26-.1 3.66 3.66 0 0 0-.88-.44c-.2-.07-.46-.1-.75-.1-.4 0-.76.07-1.06.22-.3.13-.56.34-.77.6-.2.27-.36.6-.46.97-.1.38-.15.8-.15 1.27 0 .5.05.93.16 1.32.12.37.27.7.48.96.2.25.45.45.74.59.3.13.62.2.98.2.35 0 .64-.04.86-.12.22-.09.4-.18.55-.28l.37-.27c.1-.09.2-.13.3-.13.11 0 .2.04.27.13l.4.52c-.18.22-.38.4-.6.56a3.81 3.81 0 0 1-1.54.62 4.9 4.9 0 0 1-.86.07c-.5 0-.98-.1-1.42-.28a3.29 3.29 0 0 1-1.88-2.12 5.33 5.33 0 0 1-.27-1.77c0-.6.08-1.16.25-1.67a3.5 3.5 0 0 1 1.93-2.19c.47-.2 1.01-.31 1.63-.31a3.55 3.55 0 0 1 2.66 1.06l-.37.5Zm6.39 3.01c-.66.02-1.22.08-1.68.16-.46.08-.84.19-1.13.32-.29.14-.5.3-.63.47-.13.19-.2.39-.2.61 0 .22.04.4.11.55.07.16.16.29.28.39.12.1.26.17.42.21.17.05.35.07.53.07a2.65 2.65 0 0 0 1.27-.3 4.36 4.36 0 0 0 1.02-.8v-1.68Zm-4.6-3.31a4.47 4.47 0 0 1 3.17-1.29c.45 0 .85.08 1.2.23a2.48 2.48 0 0 1 1.44 1.59c.12.38.18.8.18 1.25v5.18h-.63a.65.65 0 0 1-.32-.06c-.08-.05-.14-.14-.18-.28l-.16-.76c-.21.2-.42.37-.62.52a3.45 3.45 0 0 1-1.36.62 3.69 3.69 0 0 1-1.73-.04c-.28-.1-.52-.22-.73-.4-.2-.18-.36-.4-.49-.66a2.6 2.6 0 0 1-.17-.96c0-.32.09-.63.26-.92.18-.3.46-.57.86-.8.4-.23.9-.41 1.54-.56.64-.15 1.42-.23 2.34-.25v-.63c0-.63-.14-1.1-.41-1.43-.27-.32-.67-.49-1.2-.49a2.53 2.53 0 0 0-1.5.44c-.17.1-.32.2-.44.3a.64.64 0 0 1-.37.12.42.42 0 0 1-.25-.07.76.76 0 0 1-.18-.2l-.25-.45Zm13.44.78c-.27-.35-.56-.6-.86-.74a2.51 2.51 0 0 0-1.04-.22c-.76 0-1.34.27-1.74.81-.4.54-.6 1.3-.6 2.3 0 .53.04.99.13 1.37.09.37.22.68.4.92.17.24.39.42.65.53.25.11.54.17.87.17.47 0 .87-.1 1.22-.32.35-.21.68-.51.97-.9v-3.92Zm1.42-5.6v11.78h-.84c-.2 0-.34-.1-.39-.3l-.13-.98c-.34.42-.74.75-1.18 1a3 3 0 0 1-1.54.4 2.66 2.66 0 0 1-2.23-1.06 3.75 3.75 0 0 1-.61-1.3 6.67 6.67 0 0 1 .02-3.45c.16-.52.39-.96.69-1.34a3.16 3.16 0 0 1 2.57-1.22 2.9 2.9 0 0 1 2.22.95v-4.48h1.42Zm7.68 6.84c0-.33-.05-.63-.15-.9a1.92 1.92 0 0 0-1.93-1.34c-.68 0-1.22.2-1.62.6-.4.4-.64.94-.74 1.64h4.44Zm1.15 3.8c-.18.22-.39.4-.63.56a4.03 4.03 0 0 1-1.66.61c-.3.06-.6.08-.89.08a4.2 4.2 0 0 1-1.55-.28 3.51 3.51 0 0 1-2.02-2.19 5.51 5.51 0 0 1-.04-3.44 3.68 3.68 0 0 1 1.95-2.12 3.87 3.87 0 0 1 2.93-.06 3.1 3.1 0 0 1 1.78 1.84c.17.44.26.96.26 1.53 0 .23-.03.38-.08.45-.04.07-.13.11-.27.11h-5.41c.01.51.08.96.2 1.34a2.35 2.35 0 0 0 1.33 1.52c.31.12.66.18 1.04.18a3.1 3.1 0 0 0 1.6-.39c.18-.1.34-.18.46-.26a.63.63 0 0 1 .33-.13c.11 0 .2.04.27.13l.4.52Zm1.88 1.14v-8.1h.85c.2 0 .33.1.38.3l.1.82c.3-.36.64-.67 1-.9.38-.23.81-.35 1.3-.35.55 0 .99.15 1.33.45.34.3.58.72.73 1.24a2.62 2.62 0 0 1 1.8-1.6 3.31 3.31 0 0 1 1.93.12c.34.13.62.33.85.59.23.26.41.58.53.97.13.37.19.8.19 1.3v5.16h-1.43v-5.16c0-.63-.14-1.11-.42-1.44-.28-.33-.68-.5-1.2-.5a1.8 1.8 0 0 0-1.22.5c-.16.15-.3.35-.39.6a2.4 2.4 0 0 0-.13.84v5.16h-1.44v-5.16c0-.65-.13-1.14-.39-1.46-.26-.32-.64-.48-1.14-.48-.35 0-.68.1-.98.3-.3.18-.57.43-.82.76v6.04h-1.43Zm19.94-8.1-4.52 10.5c-.05.1-.1.18-.18.25a.5.5 0 0 1-.33.1h-1.06l1.48-3.22-3.34-7.63h1.23c.12 0 .22.03.29.1.07.05.12.12.15.2l2.17 5.1c.08.22.16.45.21.7.08-.25.16-.49.25-.71l2.1-5.1a.44.44 0 0 1 .16-.2.44.44 0 0 1 .26-.1h1.13Z" fill="#444"></path><g clip-path="url(#html-academy-logo_0)"><path d="m154.64 1.52-.14-.02-13.5 1.4v24.61l13.5 7.99 13.5-7.99v-24.6l-13.36-1.4Zm11.6 25-11.74 6.94-11.73-6.94v-10.1l11.68 6.93.02 1.25-8.02-4.75v1.23l8.04 4.8.02 1.3-8.05-4.76v1.22l8.04 4.81 8.12-4.83v-5.21l3.62-2.15v10.26Zm0-11.57-3.23 1.88-1.48.88-7.06-4.19-.01 1.23 6.04 3.57-.06.03-.13.07-.86.5-4.98-2.95-.01 1.22 3.93 2.33-.93.61-.02.01-2.97-1.74-.01 1.23 1.94 1.13-1.98 1.19-11.62-6.87 11.63-6.96 11.8 6.83Zm0-1.22-11.8-6.92-11.67 6.91v-9.23l11.73-1.23 11.73 1.23v9.24Z" fill="#666"></path></g><defs><clipPath id="html-academy-logo_0"><path fill="#fff" transform="translate(141 1.5)" d="M0 0h27v34h-27z"></path></clipPath></defs></svg></svg>